<svg xmlns="http://www.w3.org/2000/svg" width="74" height="74" viewBox="0 0 74 74">
    <defs>
        <style>
            .cls-2{fill:#42c8b7}
        </style>
    </defs>
    <g id="Group_35985" transform="translate(-563 -1486)">
        <circle id="Ellipse_3037" cx="37" cy="37" r="37" fill="#fff" transform="translate(563 1486)"/>
        <g id="Group_36103" transform="translate(612.901 1485.529) rotate(-30)">
            <g id="Group_36108">
                <g id="Group_36103-2">
                    <path id="Path_68300" d="M-29.417 47.992h-12.326a9.956 9.956 0 0 1-9.944-9.945V20.875a13.389 13.389 0 0 1 4.78-10.269l5.065-4.263a9.9 9.9 0 0 1 12.925.1l4.824 4.19a13.44 13.44 0 0 1 4.44 7.938 1.831 1.831 0 0 1-1.508 2.107 1.827 1.827 0 0 1-2.107-1.507A9.77 9.77 0 0 0-26.5 13.4l-4.824-4.19a6.253 6.253 0 0 0-8.161-.063l-5.065 4.263a9.731 9.731 0 0 0-3.475 7.465v17.172a6.286 6.286 0 0 0 6.279 6.279h12.326a1.833 1.833 0 0 1 1.833 1.833 1.833 1.833 0 0 1-1.83 1.833z" class="cls-2"/>
                </g>
                <g id="Group_36104">
                    <path id="Path_68301" d="M-16.8 34.541c-4.863 0-8.673-2.755-8.673-6.271S-21.666 22-16.8 22s8.674 2.755 8.674 6.27-3.813 6.271-8.674 6.271zm0-8.875c-2.866 0-5.007 1.375-5.007 2.6s2.141 2.6 5.007 2.6 5.009-1.375 5.009-2.6-2.145-2.6-5.009-2.6z" class="cls-2"/>
                </g>
                <g id="Group_36105">
                    <path id="Path_68302" d="M-16.8 41.267c-3.99 0-7.447-1.93-8.405-4.692a1.832 1.832 0 0 1 1.131-2.332 1.834 1.834 0 0 1 2.332 1.131c.379 1.094 2.333 2.227 4.942 2.227 2.656 0 4.6-1.15 4.955-2.262a1.832 1.832 0 0 1 2.3-1.2 1.833 1.833 0 0 1 1.2 2.3c-.903 2.844-4.379 4.828-8.455 4.828z" class="cls-2"/>
                </g>
                <g id="Group_36106">
                    <path id="Path_68303" d="M-16.8 47.992c-3.99 0-7.447-1.93-8.405-4.692a1.832 1.832 0 0 1 1.131-2.332 1.833 1.833 0 0 1 2.329 1.132c.379 1.094 2.333 2.227 4.942 2.227 2.656 0 4.6-1.15 4.955-2.262a1.833 1.833 0 0 1 2.3-1.2 1.833 1.833 0 0 1 1.2 2.3c-.9 2.843-4.376 4.827-8.452 4.827z" class="cls-2"/>
                </g>
                <g id="Group_36107">
                    <circle id="Ellipse_3039" cx="2.291" cy="2.291" r="2.291" class="cls-2" transform="translate(-38.012 15.806)"/>
                </g>
            </g>
            <path id="Rectangle_16654" fill="none" d="M0 0H52V52H0z" transform="translate(-55.908)"/>
        </g>
    </g>
</svg>
