<svg xmlns="http://www.w3.org/2000/svg" width="74" height="74" viewBox="0 0 74 74">
    <defs>
        <style>
            .cls-2{fill:#42c8b7}
        </style>
    </defs>
    <g id="Group_35998" transform="translate(-1474.543 -1486)">
        <circle id="Ellipse_3038" cx="37" cy="37" r="37" fill="#fff" transform="translate(1474.543 1486)"/>
        <g id="Group_36109" transform="translate(1476.026 1513.484) rotate(-30)">
            <g id="Group_36117">
                <g id="Group_36114">
                    <path id="Path_68307" d="M39.95 10.045h-27.9a2.023 2.023 0 0 1 0-4.045h27.9a2.023 2.023 0 0 1 0 4.045z" class="cls-2"/>
                </g>
                <g id="Group_36115">
                    <path id="Path_68308" d="M39.95 19.512h-27.9a2.022 2.022 0 0 1 0-4.045h27.9a2.022 2.022 0 0 1 0 4.045z" class="cls-2"/>
                </g>
                <g id="Group_36116">
                    <path id="Path_68309" d="M24.071 46h-.308a10.483 10.483 0 0 1-10.471-10.471v-5.415A4.712 4.712 0 0 1 18 25.408h6.317a5.139 5.139 0 0 0 5.134-5.133v-5.1a5.14 5.14 0 0 0-5.134-5.134h-9a2.023 2.023 0 1 1 0-4.045h9a9.19 9.19 0 0 1 9.179 9.179v5.1a9.19 9.19 0 0 1-9.179 9.178H18a.662.662 0 0 0-.661.661v5.415a6.434 6.434 0 0 0 6.426 6.426h.308a6.434 6.434 0 0 0 6.427-6.426 2.023 2.023 0 0 1 4.045 0A10.483 10.483 0 0 1 24.071 46z" class="cls-2"/>
                </g>
            </g>
            <path id="Rectangle_16656" fill="none" d="M0 0H52V52H0z"/>
        </g>
    </g>
</svg>
