<svg xmlns="http://www.w3.org/2000/svg" width="74" height="74" viewBox="0 0 74 74">
    <defs>
        <style>
            .cls-2{fill:#42c8b7}
        </style>
    </defs>
    <g id="Group_35983" transform="translate(-811.5 -1486)">
        <circle id="Ellipse_3034" cx="37" cy="37" r="37" fill="#fff" transform="translate(811.5 1486)"/>
        <g id="Group_36100" transform="translate(812.983 1513.484) rotate(-30)">
            <g id="Group_36102">
                <g id="Group_36100-2">
                    <path id="Path_68298" d="M26.087 48h-.147C18.681 47.949 9.1 29.12 9.159 20.537a16.5 16.5 0 0 1 4.968-11.785A16.7 16.7 0 0 1 25.892 4h.121a17.163 17.163 0 0 1 11.9 4.788 16.087 16.087 0 0 1 4.932 11.774c-.047 6.806-5.88 19.3-11.558 24.758-1.878 1.802-3.58 2.68-5.2 2.68zm-.194-40.333a13.055 13.055 0 0 0-9.2 3.706 12.869 12.869 0 0 0-3.866 9.189c-.057 8.388 9.2 23.742 13.188 23.77.511-.012 1.436-.412 2.729-1.655 4.933-4.741 10.393-16.329 10.432-22.14a12.457 12.457 0 0 0-3.816-9.116 13.514 13.514 0 0 0-9.37-3.754z" class="cls-2"/>
                </g>
                <g id="Group_36101">
                    <path id="Path_68299" d="M26 32.4h-.075a11 11 0 0 1 .075-22h.075A11.015 11.015 0 0 1 37 21.473 11.014 11.014 0 0 1 26 32.4zm0-18.333a7.333 7.333 0 0 0-.049 14.666H26a7.333 7.333 0 0 0 .049-14.666zm9.168 7.4z" class="cls-2"/>
                </g>
            </g>
            <path id="Rectangle_16653" fill="none" d="M0 0H52V52H0z"/>
        </g>
    </g>
</svg>
