<svg xmlns="http://www.w3.org/2000/svg" width="19" height="19" viewBox="0 0 19 19">
    <path fill="#42c8b7" fill-rule="evenodd" d="M75.8 59.114l-1.852 1.851-3.154 3.157a1.519 1.519 0 0 1-.846.466l-.044.018-.067.025h-.217l-.062-.019c-.015-.005-.036-.014-.052-.017a.07.07 0 0 1-.021-.011 1.406 1.406 0 0 1-.767-.4c-.412-.415-.828-.829-1.241-1.244-1.013-1.016-2.063-2.062-3.089-3.1a1.949 1.949 0 0 1 1.285-3.332h.118a1.871 1.871 0 0 1 1.337.571c.42.414.839.834 1.255 1.251l1.342 1.343 5.485-5.487.218-.219c.161-.16.331-.326.492-.495a.5.5 0 0 0 .047-.043 9.5 9.5 0 1 0 2.342 3.171q-1.252 1.258-2.51 2.514" transform="translate(-60.163 -51.034)"/>
</svg>
